<svg xmlns="http://www.w3.org/2000/svg" viewBox="0 0 512 512"><path d="M232.4 286.5c7.8 2.1 15.8 3.1 23.7 3.1 15.8 0 31.4-4.1 45.4-12.2 43.5-25.1 58.4-80.9 33.3-124.4s-80.9-58.4-124.4-33.3c-21.1 12.2-36.1 31.8-42.4 55.3-6.3 23.5-3.1 48 9.1 69.1 12.2 21 31.8 36.1 55.3 42.4zm-47.1-107c5.1-18.9 17.2-34.7 34.1-44.5 11.5-6.6 24.1-9.8 36.5-9.8 25.3 0 50 13.1 63.5 36.6 20.2 35 8.2 79.8-26.8 100-16.9 9.8-36.7 12.4-55.6 7.3-18.9-5.1-34.7-17.2-44.5-34.1-9.7-16.8-12.3-36.6-7.2-55.5zm39.4 71.9c1.4.8 2.9 1.2 4.5 1.2 1.5 0 3.1-.4 4.5-1.2l73.9-42.7c2.8-1.6 4.5-4.5 4.5-7.7s-1.7-6.1-4.5-7.7l-73.9-42.7c-2.8-1.6-6.2-1.6-8.9 0-2.8 1.6-4.5 4.5-4.5 7.7v85.4c-.1 3.2 1.6 6.1 4.4 7.7zm13.4-77.6l47.1 27.2-47.1 27.2v-54.4zm212-125.2H61.9c-18.4 0-33.4 15-33.4 33.4v267.5c0 18.4 15 33.4 33.4 33.4h149.5v62.5h-60c-4.9 0-8.9 4-8.9 8.9s4 8.9 8.9 8.9h209.1c4.9 0 8.9-4 8.9-8.9s-4-8.9-8.9-8.9h-60V383H450c18.4 0 33.4-15 33.4-33.4V82c.1-18.4-14.9-33.4-33.3-33.4zM61.9 66.5H450c8.6 0 15.5 7 15.5 15.5v244.5H46.4V82c0-8.5 7-15.5 15.5-15.5zm220.8 379h-53.3V383h53.3v62.5zm167.4-80.4H61.9c-8.6 0-15.5-7-15.5-15.5v-5.2h419.2v5.2c0 8.5-7 15.5-15.5 15.5z" fill="#e3351e"/></svg>