<svg xmlns="http://www.w3.org/2000/svg" viewBox="0 0 512 512"><path d="M223.5 143.6c0 16-9.9 24.2-17.8 30.7-7.7 6.4-13.8 11.4-13.8 23.2 0 4.8-3.9 8.7-8.7 8.7s-8.7-3.9-8.7-8.7c0-20 11.6-29.6 20.1-36.6 7.6-6.2 11.5-9.9 11.5-17.4 0-7.3-1.9-16.4-11.2-18.8-8.7-2.2-21.7 2.6-28.3 14.6-2.3 4.2-7.6 5.7-11.8 3.4-4.2-2.3-5.7-7.6-3.4-11.8 9.7-17.7 30.3-27.6 47.8-23.1 15.2 4 24.3 17.4 24.3 35.8zM184 225.1c-4.8-.5-9 2.9-9.5 7.7-.2 1.7-.3 3.4-.3 5.2 0 4.8 3.9 8.7 8.7 8.7s8.7-3.9 8.7-8.7c0-1.2.1-2.3.2-3.4.4-4.7-3-9-7.8-9.5zm191 16.4c-4.8-.5-9 2.9-9.6 7.7l-9.1 81.6c-.5 4.8 2.9 9 7.7 9.6.3 0 .6.1 1 .1 4.4 0 8.1-3.3 8.6-7.7l9.1-81.6c.5-4.9-3-9.2-7.7-9.7zm-10.9 117.7c-4.7-.8-9.2 2.4-10 7.1-.3 1.7-.5 3.4-.6 5.2-.3 4.8 3.3 8.9 8.1 9.2h.6c4.5 0 8.4-3.5 8.6-8.1.1-1.2.2-2.3.4-3.4.8-4.7-2.3-9.2-7.1-10zm110.4-53.6c0 75.6-65.1 137-145.2 137-13.8 0-27.5-1.8-40.6-5.4-13.9 13.3-23.8 19.4-49.7 33.4h-.1c-.3.1-.6.3-.9.4-.1 0-.2.1-.3.1-.2.1-.4.2-.7.2-.1 0-.2.1-.3.1-.2.1-.4.1-.7.1h-.3c-.3 0-.6.1-.9.1-.3 0-.7 0-1-.1h-.3c-.3 0-.5-.1-.8-.2-.1 0-.2 0-.2-.1-.7-.2-1.3-.5-1.9-.8-.1 0-.2-.1-.2-.1-.2-.1-.4-.3-.6-.4-.1-.1-.2-.1-.2-.2-.3-.2-.5-.4-.7-.7l-.2-.2c-.2-.2-.4-.4-.5-.6-.1-.1-.1-.2-.2-.2l-.6-.9v-.1c-.1-.2-.2-.5-.3-.7 0-.1-.1-.2-.1-.2-.1-.2-.1-.4-.2-.6 0-.1-.1-.3-.1-.4 0-.1-.1-.3-.1-.4 0-.2-.1-.4-.1-.6v-1.2l-.3-61.3c-24.7-23.7-39.2-54.2-41.4-87.2H183c-80.1 0-145.2-61.5-145.2-137s65.1-137 145.2-137c77 0 140.1 56.8 144.9 128.3.6-.1 1.2-.2 1.8-.2 79.7 0 144.8 61.5 144.8 137.1zm-291.8-8.5c13.8 0 27.5-2.1 40.5-6.1.8-.3 1.7-.4 2.6-.4 2.3 0 4.5.9 6.1 2.5 12.2 12.1 19.6 17.5 36.8 27.1l.2-50.6c0-2.4 1-4.7 2.8-6.4 25-22.7 38.8-53.2 38.8-85.9 0-66-57.3-119.7-127.8-119.7S54.9 111.3 54.9 177.3s57.3 119.8 127.8 119.8zm274.5 8.5c0-66-57.3-119.7-127.8-119.7-.6 0-1.2-.1-1.7-.2-2.1 33.2-16.6 64-41.4 87.8l-.3 61.3c0 3-1.6 5.9-4.2 7.4-1.4.8-2.9 1.2-4.4 1.2-1.4 0-2.8-.3-4.1-1-26-14-35.9-20.2-49.8-33.4-7.1 1.9-14.3 3.3-21.6 4.3 2 29.7 15.5 57.2 38.5 78.2 1.8 1.6 2.8 3.9 2.8 6.4l.2 50.5c17.2-9.6 24.6-15 36.8-27.1 2.3-2.3 5.6-3.1 8.7-2.1 13 4.1 26.6 6.1 40.5 6.1 70.4-.1 127.8-53.8 127.8-119.7zm-129.5 53.6c-4.7-.8-9.2 2.4-10 7.1-.3 1.7-.5 3.4-.6 5.2-.3 4.8 3.3 8.9 8.1 9.2h.5c4.5 0 8.4-3.5 8.6-8.1.1-1.2.2-2.3.4-3.3.9-4.8-2.3-9.3-7-10.1zm-36.5 0c-4.7-.8-9.2 2.4-10 7.1-.3 1.7-.5 3.4-.6 5.2-.3 4.8 3.3 8.9 8.1 9.2h.5c4.5 0 8.4-3.5 8.6-8.1.1-1.2.2-2.3.4-3.3.9-4.8-2.3-9.3-7-10.1z" fill="#4900b8"/></svg>