<svg xmlns="http://www.w3.org/2000/svg" viewBox="0 0 512 512"><path d="M474.1 100.7h-30.2v-43c0-4.9-4-8.9-8.9-8.9H277.6c-.1 0-.3 0-.4.1-.1 0-.3.1-.4.1-.1 0-.3.1-.4.1-.1 0-.3.1-.4.1-.1 0-.3.1-.4.1-.1.1-.3.1-.4.2-.1.1-.3.1-.4.2-.1.1-.3.1-.4.2-.1.1-.3.2-.4.2-.1.1-.2.1-.3.2-.1.1-.2.2-.4.3l-.3.3-.3.3-.3.3-.1.1L256 69.3l-16.2-17.6c-1.7-1.8-4.1-2.9-6.6-2.9H77c-4.9 0-8.9 4-8.9 8.9v43H37.9c-4.9 0-8.9 4-8.9 8.9v264c0 4.9 4 8.9 8.9 8.9h173c-.1.6-.2 1.2-.2 1.8v61h-60.9c-4.9 0-8.9 4-8.9 8.9s4 8.9 8.9 8.9h212.3c4.9 0 8.9-4 8.9-8.9s-4-8.9-8.9-8.9h-60.9v-61c0-.6-.1-1.2-.2-1.8h173c4.9 0 8.9-4 8.9-8.9v-264c.1-4.9-3.9-8.9-8.8-8.9zM85.9 306.6h143.5l18.1 19.7H85.9v-19.7zm196.8 0h143.5v19.7H264.6l18.1-19.7zm143.4-17.8H277.7c-.1 0-.3 0-.4.1-.2 0-.3.1-.5.1-.1 0-.3.1-.4.1-.2 0-.3.1-.5.1-.1 0-.3.1-.4.1-.1.1-.3.1-.4.2-.1.1-.3.1-.4.2-.1.1-.3.1-.4.2-.1.1-.3.2-.4.2-.1.1-.2.1-.3.2-.1.1-.2.2-.4.3l-.3.3-.3.3-.3.3-.1.1-8.4 9.1V87.2l18.8-20.5H426v222.1zM85.9 66.6h143.4L246 84.8v213.6l-6.2-6.7c-1.7-1.8-4.1-2.9-6.6-2.9H85.9V66.6zm197.5 317.7v61h-54.8v-61c0-.6-.1-1.2-.2-1.8h55.2c-.1.6-.2 1.2-.2 1.8zm181.8-19.6H46.8V118.5h21.3v180.1c-.1.4-.1.9-.1 1.4v35.2c0 4.9 4 8.9 8.9 8.9H435c4.9 0 8.9-4 8.9-8.9v-34.5c0-.6-.1-1.2-.2-1.8.1-.4.1-.8.1-1.3V118.5h21.3v246.2zM220.4 105.9c0 4.9-4 8.9-8.9 8.9h-91.1c-4.9 0-8.9-4-8.9-8.9s4-8.9 8.9-8.9h91.1c4.9 0 8.9 4 8.9 8.9zm0 47.5c0 4.9-4 8.9-8.9 8.9h-91.1c-4.9 0-8.9-4-8.9-8.9s4-8.9 8.9-8.9h91.1c4.9 0 8.9 4 8.9 8.9zm0 47.5c0 4.9-4 8.9-8.9 8.9h-91.1c-4.9 0-8.9-4-8.9-8.9s4-8.9 8.9-8.9h91.1c4.9 0 8.9 4 8.9 8.9zm0 47.5c0 4.9-4 8.9-8.9 8.9h-91.1c-4.9 0-8.9-4-8.9-8.9s4-8.9 8.9-8.9h91.1c4.9 0 8.9 4 8.9 8.9zm71.2-142.5c0-4.9 4-8.9 8.9-8.9h91.1c4.9 0 8.9 4 8.9 8.9s-4 8.9-8.9 8.9h-91.1c-4.9 0-8.9-4-8.9-8.9zm0 47.5c0-4.9 4-8.9 8.9-8.9h91.1c4.9 0 8.9 4 8.9 8.9s-4 8.9-8.9 8.9h-91.1c-4.9 0-8.9-4-8.9-8.9zm108.9 47.5c0 4.9-4 8.9-8.9 8.9h-91.1c-4.9 0-8.9-4-8.9-8.9s4-8.9 8.9-8.9h91.1c4.9 0 8.9 4 8.9 8.9z" fill="#2d72a5"/></svg>